# xmcd
#
# Track frame offsets: 
#        150
#        25388
#        51341
#        65149
#        78955
#        99042
#        125291
#        153611
#
# Disc length: 2357 seconds
#
# Revision: 0
# Processed by: cddbd v1.5.2PL0 Copyright (c) Steve Scherf et al.
# Submitted via: ExactAudioCopyFreeDBPlugin 1.0
#
DISCID=62093308
DTITLE=Calvin Russel - Contrabendo CD1
DYEAR=2010
DGENRE=Blues
TTITLE0=Are You Ready
TTITLE1=Free In Freedom
TTITLE2=Don't Want To Go In Heaven
TTITLE3=Midnite Man
TTITLE4=When You Smile
TTITLE5=Wild Wild West
TTITLE6=Petit Gars
TTITLE7=Different People
EXTD=
EXTT0=
EXTT1=
EXTT2=
EXTT3=
EXTT4=
EXTT5=
EXTT6=
EXTT7=
PLAYORDER=
